<?xml version="1.0" standalone="no"?>
<!DOCTYPE svg PUBLIC "-//W3C//DTD SVG 20010904//EN"
 "http://www.w3.org/TR/2001/REC-SVG-20010904/DTD/svg10.dtd">
<svg version="1.0" xmlns="http://www.w3.org/2000/svg"
 width="600.000000pt" height="600.000000pt" viewBox="0 0 600.000000 600.000000"
 preserveAspectRatio="xMidYMid meet">
<metadata>
Created by potrace 1.14, written by Peter Selinger 2001-2017
</metadata>
<g transform="translate(0.000000,600.000000) scale(0.100000,-0.100000)"
fill="#000000" stroke="none">
<path d="M4257 4942 c-56 -216 -119 -437 -127 -446 -5 -5 -54 -2 -115 8 -435
68 -919 28 -1344 -109 -447 -145 -836 -395 -1127 -726 l-95 -108 -42 18 c-23
11 -187 90 -365 178 -178 87 -325 157 -326 155 -2 -1 1 -24 6 -50 20 -99 60
-288 65 -305 3 -13 120 -76 356 -193 l352 -175 35 43 c237 288 477 478 815
644 238 117 480 194 771 245 223 39 633 37 895 -5 44 -7 81 -10 84 -7 2 3 39
141 84 306 70 265 82 320 96 464 9 89 15 165 13 166 -2 2 -16 -44 -31 -103z"/>
<path d="M3230 4023 c-277 -21 -644 -111 -915 -225 l-80 -34 1 -74 c0 -41 4
-127 8 -190 l8 -115 203 -300 c112 -165 210 -304 218 -309 9 -6 42 3 98 27
107 45 221 81 351 109 90 19 133 22 338 23 206 0 249 -3 348 -23 225 -45 432
-128 626 -251 54 -33 101 -61 105 -61 8 0 561 528 561 536 0 2 14 81 30 174
17 93 30 174 30 179 0 34 -480 291 -684 366 -197 72 -509 140 -755 165 -95 9
-384 11 -491 3z"/>
<path d="M3430 2839 c-122 -14 -288 -49 -400 -85 -137 -44 -341 -147 -460
-231 -118 -84 -307 -272 -379 -377 -48 -70 -54 -84 -52 -125 3 -86 29 -293 38
-301 11 -12 782 -350 797 -350 6 0 32 28 56 62 87 119 236 218 385 254 47 12
111 18 196 18 l127 0 6 48 c4 26 34 198 67 380 44 242 65 382 74 513 8 99 12
181 10 183 -19 19 -328 26 -465 11z"/>
<path d="M3690 1654 c-14 -2 -52 -9 -85 -15 -75 -14 -207 -64 -228 -87 -12
-13 -16 -52 -18 -184 l-4 -168 204 -250 c112 -137 208 -250 212 -250 8 0 175
192 328 378 l93 112 19 143 c27 212 34 189 -73 241 -51 25 -122 52 -157 61
-63 16 -242 28 -291 19z"/>
</g>
</svg>
